<?xml version="1.0" encoding="UTF-8"?>
<svg version="1.1" xmlns="http://www.w3.org/2000/svg" width="495" height="504">
<path d="M0 0 C9.45057494 -0.09354012 18.90098548 -0.16418397 28.35192585 -0.20724869 C32.74251715 -0.22793931 37.13278699 -0.25590824 41.52319336 -0.30175781 C95.61573416 -0.85157578 95.61573416 -0.85157578 113.80859375 16.58203125 C124.09987884 27.93729946 125.77258988 40.25139417 125.13867188 54.97705078 C124.82623662 59.53486512 124.05784237 63.88431527 122 68 C114.08 68 106.16 68 98 68 C98.04640625 65.98519531 98.0928125 63.97039062 98.140625 61.89453125 C98.16848907 59.89528397 98.19619151 57.89603144 98.21972656 55.89672852 C98.23957267 54.5303881 98.26665914 53.16412941 98.30175781 51.7980957 C98.60030687 39.86052393 97.3747382 28.74518976 90 19 C90 18.34 90 17.68 90 17 C88.68 16.34 87.36 15.68 86 15 C86 14.34 86 13.68 86 13 C85.319375 12.896875 84.63875 12.79375 83.9375 12.6875 C81 12 81 12 77.875 10.5078125 C73.64567119 8.66576647 69.63146924 8.37642784 65.0625 8.1875 C64.30259766 8.13658203 63.54269531 8.08566406 62.75976562 8.03320312 C57.44865603 7.76560666 53.02020376 8.1641326 48 10 C45.18357428 13.66378839 44.60221294 16.49536679 44.48828125 21.05859375 C44.45283203 22.2396167 44.41738281 23.42063965 44.38085938 24.63745117 C44.35830078 25.89146729 44.33574219 27.1454834 44.3125 28.4375 C44.27833984 29.72180908 44.24417969 31.00611816 44.20898438 32.3293457 C43.98903073 41.37606173 43.91818007 50.42360766 44.03637695 59.47241211 C44.10144217 65.79711567 44.10144217 65.79711567 43 68 C35.08 68 27.16 68 19 68 C18.96261719 64.38804687 18.92523438 60.77609375 18.88671875 57.0546875 C18.84048461 53.54974369 18.78925766 50.04490587 18.73754883 46.54003906 C18.70433053 44.1074876 18.67628901 41.67485963 18.65356445 39.2421875 C18.61996242 35.74185642 18.56764166 32.24222445 18.51171875 28.7421875 C18.50532883 27.65759247 18.4989389 26.57299744 18.49235535 25.45553589 C18.38558625 19.95042233 18.24114039 15.68127547 15 11 C11.83376253 8.88917502 10.66687122 8.71826614 7 8.5 C3.33312878 8.28173386 2.16623747 8.11082498 -1 6 C-0.67 4.02 -0.34 2.04 0 0 Z " fill="#F7FAFB" transform="translate(187,150)"/>
<path d="M0 0 C7.92 0 15.84 0 24 0 C25.12696442 2.25392884 25.1409692 3.51728713 25.17358398 6.01904297 C25.18707382 6.84685272 25.20056366 7.67466248 25.21446228 8.52755737 C25.22490067 9.42338531 25.23533905 10.31921326 25.24609375 11.2421875 C25.27903211 13.13151505 25.31224376 15.02083785 25.34570312 16.91015625 C25.39312692 19.89466074 25.43755453 22.87914595 25.47680664 25.86376953 C25.51652465 28.74011423 25.56807073 31.61606163 25.62109375 34.4921875 C25.6295079 35.38396698 25.63792206 36.27574646 25.64659119 37.19454956 C25.67155418 38.44572067 25.67155418 38.44572067 25.69702148 39.72216797 C25.70732895 40.4533786 25.71763641 41.18458923 25.72825623 41.93795776 C26.19717985 45.49623729 27.3666297 47.50105001 30.171875 49.7109375 C33.63940225 51.29144025 36.45170403 51.47402171 40.25 51.625 C46.9154013 51.9154013 46.9154013 51.9154013 48 53 C48 55.31 48 57.62 48 60 C25.89 60 3.78 60 -19 60 C-19.33 58.02 -19.66 56.04 -20 54 C-16.99371728 50.99371728 -13.83930418 51.61323238 -9.7265625 51.44140625 C-6.57131647 50.93059994 -5.24882908 50.25378245 -3 48 C-0.41197042 43.24673776 -0.65251457 38.37785626 -0.5859375 33.10546875 C-0.56657135 32.15811356 -0.5472052 31.21075836 -0.5272522 30.23469543 C-0.46763629 27.21905423 -0.42114295 24.20337448 -0.375 21.1875 C-0.33680367 19.13865554 -0.29775098 17.08982686 -0.2578125 15.04101562 C-0.16034298 10.02742741 -0.08063141 5.01400029 0 0 Z " fill="#EFF4F5" transform="translate(206,263)"/>
<path d="M0 0 C5 0 5 0 6.58203125 1.53125 C6.98808594 2.1809375 7.39414062 2.830625 7.8125 3.5 C8.23144531 4.1496875 8.65039062 4.799375 9.08203125 5.46875 C9.38496094 5.9740625 9.68789063 6.479375 10 7 C10.66 4.69 11.32 2.38 12 0 C13.32 0 14.64 0 16 0 C16 6.6 16 13.2 16 20 C11 19 11 19 9.41796875 17.15234375 C8.27864583 15.1015625 7.13932292 13.05078125 6 11 C5.67 13.97 5.34 16.94 5 20 C3.35 19.67 1.7 19.34 0 19 C0 12.73 0 6.46 0 0 Z " fill="#E0ECF1" transform="translate(353,230)"/>
<path d="M0 0 C1.95803507 -0.05389087 3.91648909 -0.09274217 5.875 -0.125 C7.51082031 -0.15980469 7.51082031 -0.15980469 9.1796875 -0.1953125 C12 0 12 0 14 2 C14.5546875 5.1171875 14.5546875 5.1171875 14.875 8.875 C14.99617187 10.10992187 15.11734375 11.34484375 15.2421875 12.6171875 C15 16 15 16 13.33203125 18.42578125 C10.5614557 20.29603576 9.12147744 20.45424349 5.8125 20.3125 C4.93207031 20.28800781 4.05164063 20.26351562 3.14453125 20.23828125 C1 20 1 20 0 19 C-0.08651611 17.58429877 -0.10704904 16.164405 -0.09765625 14.74609375 C-0.09443359 13.89208984 -0.09121094 13.03808594 -0.08789062 12.15820312 C-0.07951172 11.26037109 -0.07113281 10.36253906 -0.0625 9.4375 C-0.05798828 8.53580078 -0.05347656 7.63410156 -0.04882812 6.70507812 C-0.03700225 4.46998686 -0.0205222 2.23502563 0 0 Z M6 3 C5.67 4.32 5.34 5.64 5 7 C6.32 7 7.64 7 9 7 C8.67 5.68 8.34 4.36 8 3 C7.34 3 6.68 3 6 3 Z M5 11 C5 12.65 5 14.3 5 16 C6.65 15.67 8.3 15.34 10 15 C9.67 13.68 9.34 12.36 9 11 C7.68 11 6.36 11 5 11 Z " fill="#BCDFE4" transform="translate(194,230)"/>
<path d="M0 0 C9.1796875 -0.1953125 9.1796875 -0.1953125 12 0 C14.63326457 2.63326457 14.71180635 4.32553101 15 8 C14.62875 8.86625 14.2575 9.7325 13.875 10.625 C13.58625 11.40875 13.2975 12.1925 13 13 C14.32337286 15.15340529 14.32337286 15.15340529 16 17 C16 17.99 16 18.98 16 20 C11.49330085 20.36540804 11.49330085 20.36540804 9.3125 18.75 C7.9351871 16.91358281 6.9378459 15.09211779 6 13 C5.67 15.31 5.34 17.62 5 20 C3.35 19.67 1.7 19.34 0 19 C0 12.73 0 6.46 0 0 Z M5 3 C5.33 4.65 5.66 6.3 6 8 C6.99 8 7.98 8 9 8 C8.73323796 6.01508358 8.73323796 6.01508358 8 4 C7.01 3.67 6.02 3.34 5 3 Z " fill="#C5DFE5" transform="translate(308,230)"/>
<path d="M0 0 C1.918125 -0.0825 3.83625 -0.165 5.8125 -0.25 C7.43091797 -0.31960937 7.43091797 -0.31960937 9.08203125 -0.390625 C12 0 12 0 13.90234375 1.828125 C15.71765567 5.41998773 14.47083245 8.50189675 13.3125 12.1875 C12.72786063 14.3371308 12.72786063 14.3371308 15 17 C15 17.99 15 18.98 15 20 C11.32579134 19.69381595 10.21864487 19.24228216 7.6875 16.4375 C7.130625 15.633125 6.57375 14.82875 6 14 C5.67 15.98 5.34 17.96 5 20 C3.35 20 1.7 20 0 20 C0 13.4 0 6.8 0 0 Z M5 4 C5 5.32 5 6.64 5 8 C5.99 8.33 6.98 8.66 8 9 C8.33 7.68 8.66 6.36 9 5 C7.68 4.67 6.36 4.34 5 4 Z " fill="#B8E5EB" transform="translate(149,230)"/>
<path d="M0 0 C1.32 0 2.64 0 4 0 C4 2.64 4 5.28 4 8 C7.465 7.505 7.465 7.505 11 7 C11 4.69 11 2.38 11 0 C12.65 0 14.3 0 16 0 C16 6.6 16 13.2 16 20 C14.35 20 12.7 20 11 20 C9.89155081 16.67465243 10.15545644 14.37817425 11 11 C9.35 11.33 7.7 11.66 6 12 C5.67 14.31 5.34 16.62 5 19 C3.68 19.33 2.36 19.66 1 20 C-1.21452021 15.64703089 -1.07786638 11.91995366 -0.625 7.1875 C-0.56828125 6.49462891 -0.5115625 5.80175781 -0.453125 5.08789062 C-0.31269396 3.39101554 -0.15780593 1.69534752 0 0 Z " fill="#DAF3F4" transform="translate(216,230)"/>
<path d="M0 0 C0.66 0.33 1.32 0.66 2 1 C1.95456055 2.1449292 1.95456055 2.1449292 1.90820312 3.31298828 C1.36028254 17.37136608 0.84952103 31.39959749 1.03710938 45.47119141 C1.1003539 51.79929221 1.1003539 51.79929221 0 54 C-7.92 54 -15.84 54 -24 54 C-24.33 36.51 -24.66 19.02 -25 1 C-24.34 1 -23.68 1 -23 1 C-22.98969254 1.59690643 -22.97938507 2.19381287 -22.96876526 2.80880737 C-22.86082612 9.00530229 -22.74621812 15.20164807 -22.62768555 21.39794922 C-22.58429624 23.71237069 -22.54262416 26.026825 -22.50268555 28.34130859 C-22.44507968 31.66253573 -22.38135749 34.98359692 -22.31640625 38.3046875 C-22.29969376 39.34430634 -22.28298126 40.38392517 -22.26576233 41.45504761 C-22.24581711 42.41589264 -22.22587189 43.37673767 -22.20532227 44.36669922 C-22.18200584 45.63910965 -22.18200584 45.63910965 -22.15821838 46.93722534 C-22.12570042 49.06318305 -22.12570042 49.06318305 -21 51 C-14.4 51 -7.8 51 -1 51 C-1.00785522 48.78917725 -1.00785522 48.78917725 -1.01586914 46.53369141 C-1.03392902 41.08073531 -1.04543565 35.62778187 -1.05493164 30.17480469 C-1.05996959 27.81184444 -1.06680008 25.44888732 -1.07543945 23.0859375 C-1.08752854 19.69530465 -1.09323359 16.30471291 -1.09765625 12.9140625 C-1.10281754 11.85256989 -1.10797882 10.79107727 -1.11329651 9.69741821 C-1.11340981 8.22611954 -1.11340981 8.22611954 -1.11352539 6.72509766 C-1.115746 5.85905914 -1.11796661 4.99302063 -1.12025452 4.10073853 C-1 2 -1 2 0 0 Z " fill="#91AAB0" transform="translate(230,164)"/>
<path d="M0 0 C1.65 0 3.3 0 5 0 C5.33 1.32 5.66 2.64 6 4 C6.556875 3.319375 7.11375 2.63875 7.6875 1.9375 C8.8321875 0.9784375 8.8321875 0.9784375 10 0 C12.75 0.25 12.75 0.25 15 1 C13.02 3.31 11.04 5.62 9 8 C10.48868286 10.97736572 11.53878822 12.83438636 13.625 15.25 C14.40875 16.1575 15.1925 17.065 16 18 C15.67 18.66 15.34 19.32 15 20 C10.68607774 19.5206753 8.83430453 18.2542015 6 15 C5.67 16.65 5.34 18.3 5 20 C3.35 19.67 1.7 19.34 0 19 C0 12.73 0 6.46 0 0 Z " fill="#A2C8D8" transform="translate(263,230)"/>
<path d="M0 0 C1.65 0 3.3 0 5 0 C8.1063786 6.56882431 10.83836487 13.06001352 13 20 C10.6875 20.25 10.6875 20.25 8 20 C7 18.66666667 6 17.33333333 5 16 C2.37374861 15.66574265 2.37374861 15.66574265 0 16 C-0.66 17.32 -1.32 18.64 -2 20 C-3.32 20 -4.64 20 -6 20 C-5.36757331 15.27497299 -4.08186437 11.09429803 -2.4375 6.625 C-2.20353516 5.98433594 -1.96957031 5.34367188 -1.72851562 4.68359375 C-1.15700381 3.1206839 -0.57915771 1.56009273 0 0 Z M2 9 C1.67 9.66 1.34 10.32 1 11 C1.99 10.67 2.98 10.34 4 10 C3.34 9.67 2.68 9.34 2 9 Z " fill="#ECF9FB" transform="translate(290,230)"/>
<path d="M0 0 C1.65 0 3.3 0 5 0 C6.17578304 2.57952403 7.340791 5.16303938 8.5 7.75 C8.83386719 8.47960937 9.16773438 9.20921875 9.51171875 9.9609375 C9.82753906 10.66992188 10.14335937 11.37890625 10.46875 12.109375 C10.76201172 12.75874023 11.05527344 13.40810547 11.35742188 14.07714844 C12 16 12 16 12 20 C9.625 19.6875 9.625 19.6875 7 19 C6.34 18.01 5.68 17.02 5 16 C1.93443402 15.26656572 1.93443402 15.26656572 -1 15 C-1.33 16.65 -1.66 18.3 -2 20 C-3.65 20 -5.3 20 -7 20 C-5.07443364 13.14381674 -2.7527517 6.56747868 0 0 Z M2 9 C1.67 9.66 1.34 10.32 1 11 C1.66 11 2.32 11 3 11 C2.67 10.34 2.34 9.68 2 9 Z " fill="#DCEBF2" transform="translate(335,230)"/>
<path d="M0 0 C1.65 0 3.3 0 5 0 C6.19922024 2.76628111 7.38460499 5.537155 8.5625 8.3125 C8.90474609 9.09818359 9.24699219 9.88386719 9.59960938 10.69335938 C9.91865234 11.45068359 10.23769531 12.20800781 10.56640625 12.98828125 C10.86490479 13.68477783 11.16340332 14.38127441 11.47094727 15.09887695 C12 17 12 17 11 20 C9.68 20 8.36 20 7 20 C6.67 18.35 6.34 16.7 6 15 C3.69 15 1.38 15 -1 15 C-1.33 16.65 -1.66 18.3 -2 20 C-3.65 19.67 -5.3 19.34 -7 19 C-4.94235079 12.54646385 -2.57616518 6.2638737 0 0 Z M1 9 C1 9.66 1 10.32 1 11 C1.66 11 2.32 11 3 11 C3 10.34 3 9.68 3 9 C2.34 9 1.68 9 1 9 Z " fill="#BBD6E0" transform="translate(245,230)"/>
<path d="M0 0 C1.65 0 3.3 0 5 0 C6.01390853 2.20283698 7.01104385 4.41098556 8 6.625 C8.28617188 7.24246094 8.57234375 7.85992187 8.8671875 8.49609375 C10.63829919 12.50217971 11.32255965 15.63200469 11 20 C9.35 19.67 7.7 19.34 6 19 C6 17.68 6 16.36 6 15 C2.56206661 15.18129815 2.56206661 15.18129815 -1 16 C-2.51294288 17.93597032 -2.51294288 17.93597032 -3 20 C-4.32 20 -5.64 20 -7 20 C-6.31849986 15.87227759 -5.02587765 12.20260086 -3.5 8.3125 C-3.0565625 7.17425781 -2.613125 6.03601563 -2.15625 4.86328125 C-1 2 -1 2 0 0 Z M1 9 C1 9.66 1 10.32 1 11 C1.66 11 2.32 11 3 11 C3 10.34 3 9.68 3 9 C2.34 9 1.68 9 1 9 Z " fill="#EAF8FA" transform="translate(176,230)"/>
<path d="M0 0 C0.88429687 -0.01417969 1.76859375 -0.02835938 2.6796875 -0.04296875 C5.125 0.1875 5.125 0.1875 8.125 2.1875 C9.10368153 5.04826138 9.34635111 6.57452769 8.3125 9.4375 C7.125 11.1875 7.125 11.1875 5.125 12.1875 C3.12539988 12.227492 1.12452758 12.23096799 -0.875 12.1875 C-0.545 14.4975 -0.215 16.8075 0.125 19.1875 C-1.525 19.5175 -3.175 19.8475 -4.875 20.1875 C-5.07094676 17.04213232 -5.2553401 13.89619386 -5.4375 10.75 C-5.49357422 9.85216797 -5.54964844 8.95433594 -5.60742188 8.02929688 C-5.65576172 7.17529297 -5.70410156 6.32128906 -5.75390625 5.44140625 C-5.8010376 4.65064697 -5.84816895 3.8598877 -5.89672852 3.04516602 C-5.85198568 -0.78009501 -3.1772185 0.02302332 0 0 Z M-0.875 3.1875 C-0.875 5.1675 -0.875 7.1475 -0.875 9.1875 C0.445 8.8575 1.765 8.5275 3.125 8.1875 C3.125 6.8675 3.125 5.5475 3.125 4.1875 C1.805 3.8575 0.485 3.5275 -0.875 3.1875 Z " fill="#BAD8DF" transform="translate(133.875,229.8125)"/>
<path d="M0 0 C1.670625 0.061875 1.670625 0.061875 3.375 0.125 C0.375 1.625 0.375 1.625 -2.625 3.125 C-2.955 4.115 -3.285 5.105 -3.625 6.125 C-2.366875 6.00125 -1.10875 5.8775 0.1875 5.75 C1.24904297 5.64558594 1.24904297 5.64558594 2.33203125 5.5390625 C4.67488142 5.19834609 4.67488142 5.19834609 7.375 3.125 C7.705 3.785 8.035 4.445 8.375 5.125 C9.19519119 5.13713028 9.19519119 5.13713028 10.0319519 5.14950562 C15.70953114 5.23538769 21.3867546 5.33488325 27.06396484 5.44238281 C29.1843469 5.48072842 31.30479526 5.51557133 33.42529297 5.546875 C36.46866598 5.59240466 39.51158032 5.65041839 42.5546875 5.7109375 C43.50681122 5.72248871 44.45893494 5.73403992 45.43991089 5.74594116 C46.32067291 5.76581085 47.20143494 5.78568054 48.10888672 5.80615234 C49.27470779 5.82613785 49.27470779 5.82613785 50.46408081 5.8465271 C52.375 6.125 52.375 6.125 54.375 8.125 C34.905 8.125 15.435 8.125 -4.625 8.125 C-4.955 6.145 -5.285 4.165 -5.625 2.125 C-3.625 0.125 -3.625 0.125 0 0 Z " fill="#9DC7D2" transform="translate(191.625,314.875)"/>
<path d="M0 0 C1.32 0 2.64 0 4 0 C3.79375 1.11375 3.5875 2.2275 3.375 3.375 C3.25125 4.57125 3.1275 5.7675 3 7 C3.66 7.66 4.32 8.32 5 9 C4.9765625 11.3828125 4.9765625 11.3828125 4.625 14.125 C4.51414063 15.03507813 4.40328125 15.94515625 4.2890625 16.8828125 C4.19367188 17.58148438 4.09828125 18.28015625 4 19 C2.35 19 0.7 19 -1 19 C-1.0272616 16.95840905 -1.04651345 14.91671037 -1.0625 12.875 C-1.07410156 11.73804688 -1.08570313 10.60109375 -1.09765625 9.4296875 C-1.005327 6.1870844 -0.61389906 3.18067388 0 0 Z " fill="#F0FBFD" transform="translate(150,231)"/>
<path d="M0 0 C0.33 0 0.66 0 1 0 C1 2.64 1 5.28 1 8 C2.65 8.33 4.3 8.66 6 9 C6.33 10.65 6.66 12.3 7 14 C4.69 13.67 2.38 13.34 0 13 C-0.33 14.65 -0.66 16.3 -1 18 C-2.65 18 -4.3 18 -6 18 C-4.23536928 11.89262558 -2.30442525 5.92566493 0 0 Z " fill="#C4DFE8" transform="translate(334,232)"/>
<path d="M0 0 C3.3 0 6.6 0 10 0 C8 1 6 2 4 3 C3.34786708 5.02463255 3.34786708 5.02463255 3 7 C3.99 7 4.98 7 6 7 C6 7.66 6 8.32 6 9 C5.01 9 4.02 9 3 9 C3.26656572 11.93443402 3.26656572 11.93443402 4 15 C4.99 15.66 5.98 16.32 7 17 C6.67 17.33 6.34 17.66 6 18 C4.02 18 2.04 18 0 18 C0 12.06 0 6.12 0 0 Z " fill="#EEFDFD" transform="translate(195,231)"/>
<path d="M0 0 C0.33 0.99 0.66 1.98 1 3 C4.63 3.33 8.26 3.66 12 4 C12.33 2.68 12.66 1.36 13 0 C13.99 2.97 14.98 5.94 16 9 C14.35 9.33 12.7 9.66 11 10 C10.67 8.35 10.34 6.7 10 5 C7.69 5 5.38 5 3 5 C2.67 6.65 2.34 8.3 2 10 C0.35 9.67 -1.3 9.34 -3 9 C-2.01 6.03 -1.02 3.06 0 0 Z " fill="#9CC3CF" transform="translate(241,240)"/>
<path d="M0 0 C1.65 0 3.3 0 5 0 C5.99 3.3 6.98 6.6 8 10 C6.68 9.34 5.36 8.68 4 8 C4 9.32 4 10.64 4 12 C2.68 12 1.36 12 0 12 C-0.33 10.68 -0.66 9.36 -1 8 C-1.66 8.66 -2.32 9.32 -3 10 C-2.49287967 6.28111761 -1.88391785 3.26545761 0 0 Z M1 9 C1 9.66 1 10.32 1 11 C1.66 11 2.32 11 3 11 C3 10.34 3 9.68 3 9 C2.34 9 1.68 9 1 9 Z " fill="#B6D0D4" transform="translate(176,230)"/>
<path d="M0 0 C0.99 0 1.98 0 3 0 C3 1.98 3 3.96 3 6 C3.99 6 4.98 6 6 6 C5.67 7.98 5.34 9.96 5 12 C4.34 12 3.68 12 3 12 C3 13.98 3 15.96 3 18 C1.68 18 0.36 18 -1 18 C-0.505 9.09 -0.505 9.09 0 0 Z " fill="#EFFCFC" transform="translate(264,231)"/>
<path d="M0 0 C0.66 0 1.32 0 2 0 C2.79483476 4.2553426 3.16582888 8.35025191 3.28125 12.67578125 C3.31863281 13.91521484 3.35601562 15.15464844 3.39453125 16.43164062 C3.46537415 19.0383971 3.53567877 21.64516825 3.60546875 24.25195312 C3.64285156 25.48494141 3.68023437 26.71792969 3.71875 27.98828125 C3.74904297 29.11790283 3.77933594 30.24752441 3.81054688 31.41137695 C3.7113162 33.92918545 3.7113162 33.92918545 5 35 C6.48638992 35.15655027 7.97949127 35.25066943 9.47265625 35.31640625 C10.82133789 35.37924805 10.82133789 35.37924805 12.19726562 35.44335938 C13.14279297 35.48267578 14.08832031 35.52199219 15.0625 35.5625 C16.01189453 35.60568359 16.96128906 35.64886719 17.93945312 35.69335938 C20.29281353 35.79979276 22.64628354 35.90181008 25 36 C25 36.33 25 36.66 25 37 C17.08 37 9.16 37 1 37 C1.01160156 34.91558594 1.02320313 32.83117187 1.03515625 30.68359375 C1.04297496 28.64477694 1.04903568 26.60596185 1.05493164 24.56713867 C1.0599327 23.15990439 1.0667357 21.75267523 1.07543945 20.34545898 C1.08769159 18.31232431 1.0932707 16.27925886 1.09765625 14.24609375 C1.10289307 13.02591553 1.10812988 11.8057373 1.11352539 10.54858398 C0.99887643 6.96487943 0.57327963 3.53687745 0 0 Z " fill="#A9D1DB" transform="translate(284,181)"/>
<path d="M0 0 C1.32 0 2.64 0 4 0 C3.67 5.61 3.34 11.22 3 17 C3.66 17 4.32 17 5 17 C4.67 17.99 4.34 18.98 4 20 C2.68 20 1.36 20 0 20 C-0.19594676 16.85463232 -0.3803401 13.70869386 -0.5625 10.5625 C-0.61857422 9.66466797 -0.67464844 8.76683594 -0.73242188 7.84179688 C-0.78076172 6.98779297 -0.82910156 6.13378906 -0.87890625 5.25390625 C-0.9260376 4.46314697 -0.97316895 3.6723877 -1.02172852 2.85766602 C-1 1 -1 1 0 0 Z " fill="#D4EDF1" transform="translate(129,230)"/>
<path d="M0 0 C0.66 0 1.32 0 2 0 C2 5.61 2 11.22 2 17 C0.68 17 -0.64 17 -2 17 C-3.64826111 14.03312999 -4.44271087 11.34373475 -5 8 C-3.68 7.67 -2.36 7.34 -1 7 C-0.67 4.69 -0.34 2.38 0 0 Z " fill="#E6F9F9" transform="translate(366,232)"/>
<path d="M0 0 C1.65 0 3.3 0 5 0 C5 2.31 5 4.62 5 7 C4.34 7 3.68 7 3 7 C2.67 7.99 2.34 8.98 2 10 C2.33 10.66 2.66 11.32 3 12 C3.0396713 13.66619446 3.04384447 15.33391013 3 17 C1.68 17 0.36 17 -1 17 C-1.02721176 15.10424749 -1.04649136 13.20838021 -1.0625 11.3125 C-1.07410156 10.25675781 -1.08570313 9.20101562 -1.09765625 8.11328125 C-1.00865425 5.27589738 -0.64939838 2.7561081 0 0 Z " fill="#DAECEF" transform="translate(309,231)"/>
<path d="M0 0 C14.19 0 28.38 0 43 0 C43 0.33 43 0.66 43 1 C41.69546875 1.06058594 40.3909375 1.12117187 39.046875 1.18359375 C37.28123796 1.26797771 35.5156138 1.35263131 33.75 1.4375 C32.83355713 1.48044189 31.91711426 1.52338379 30.97290039 1.56762695 C26.10428462 1.80613713 21.28377617 2.14831166 16.4375 2.6875 C10.73160604 3.22471684 5.54761305 2.32138027 0 1 C0 0.67 0 0.34 0 0 Z " fill="#92C4CB" transform="translate(218,150)"/>
<path d="M0 0 C1.32 0 2.64 0 4 0 C4 6.6 4 13.2 4 20 C3.34 19.67 2.68 19.34 2 19 C2.33 13.39 2.66 7.78 3 2 C2.34 2 1.68 2 1 2 C1 4.31 1 6.62 1 9 C-0.65 9.33 -2.3 9.66 -4 10 C-3.67 8.68 -3.34 7.36 -3 6 C-2.67 6.33 -2.34 6.66 -2 7 C-1.34 4.69 -0.68 2.38 0 0 Z M-6 10 C-4.02 10.99 -4.02 10.99 -2 12 C-2.33 12.99 -2.66 13.98 -3 15 C-3.99 13.35 -4.98 11.7 -6 10 Z " fill="#D2F3F5" transform="translate(365,230)"/>
<path d="M0 0 C0.69738281 0.00451172 1.39476562 0.00902344 2.11328125 0.01367188 C3.82555803 0.0253998 5.53779033 0.04333347 7.25 0.0625 C7.58 1.0525 7.91 2.0425 8.25 3.0625 C7.404375 3.03929687 6.55875 3.01609375 5.6875 2.9921875 C-5.58206827 2.73827787 -5.58206827 2.73827787 -15.75 7.0625 C-15.75 6.0725 -15.75 5.0825 -15.75 4.0625 C-11.02840241 -0.32184062 -6.16092506 -0.07570135 0 0 Z " fill="#B2D6E0" transform="translate(247.75,154.9375)"/>
<path d="M0 0 C1.98 0.495 1.98 0.495 4 1 C3.01 1 2.02 1 1 1 C1.33 4.96 1.66 8.92 2 13 C2.99 12.34 3.98 11.68 5 11 C5 13.64 5 16.28 5 19 C3.68 19.33 2.36 19.66 1 20 C-1.21452021 15.64703089 -1.07786638 11.91995366 -0.625 7.1875 C-0.56828125 6.49462891 -0.5115625 5.80175781 -0.453125 5.08789062 C-0.31269396 3.39101554 -0.15780593 1.69534752 0 0 Z " fill="#ABCBD1" transform="translate(216,230)"/>
<path d="M0 0 C1.125 1.5625 1.125 1.5625 2 4 C1.649375 5.155 1.29875 6.31 0.9375 7.5 C0.4734375 9.2325 0.4734375 9.2325 0 11 C1.28350327 13.26757564 1.28350327 13.26757564 3 15 C3 15.99 3 16.98 3 18 C1.35 18 -0.3 18 -2 18 C-3.4606285 15.35261084 -4 14.10551666 -4 11 C-3.34 11 -2.68 11 -2 11 C-1.24758891 7.34543185 -0.59950296 3.68266103 0 0 Z " fill="#BDDBE8" transform="translate(321,232)"/>
<path d="M0 0 C1.65 0 3.3 0 5 0 C6.35439668 2.70879335 6.06501451 5.00933268 6 8 C3 8 3 8 1 7 C0.67 8.32 0.34 9.64 0 11 C-1.35015859 6.94952424 -0.62084998 4.2079832 0 0 Z " fill="#E2F3F4" transform="translate(335,230)"/>
<path d="M0 0 C1.65 0 3.3 0 5 0 C5.33 3.3 5.66 6.6 6 10 C5.01 9.67 4.02 9.34 3 9 C3 8.34 3 7.68 3 7 C1.68 6.67 0.36 6.34 -1 6 C-1.042721 4.33388095 -1.04063832 2.66617115 -1 1 C-0.67 0.67 -0.34 0.34 0 0 Z " fill="#DDF1F3" transform="translate(245,230)"/>
<path d="M0 0 C1.670625 0.061875 1.670625 0.061875 3.375 0.125 C0.375 1.625 0.375 1.625 -2.625 3.125 C-2.955 4.115 -3.285 5.105 -3.625 6.125 C-2.366875 6.00125 -1.10875 5.8775 0.1875 5.75 C1.24904297 5.64558594 1.24904297 5.64558594 2.33203125 5.5390625 C4.67488142 5.19834609 4.67488142 5.19834609 7.375 3.125 C7.375 4.115 7.375 5.105 7.375 6.125 C3.2544254 8.12285435 -0.07694365 8.30335515 -4.625 8.125 C-5.25 5.25 -5.25 5.25 -5.625 2.125 C-3.625 0.125 -3.625 0.125 0 0 Z " fill="#B9E4EA" transform="translate(191.625,314.875)"/>
<path d="M0 0 C0.33 0 0.66 0 1 0 C1 1.98 1 3.96 1 6 C3.02045442 5.39816251 5.02111039 4.72693904 7 4 C7.33 3.34 7.66 2.68 8 2 C8.625 3.8125 8.625 3.8125 9 6 C8.01 7.485 8.01 7.485 7 9 C3.875 9.1875 3.875 9.1875 1 9 C1 10.65 1 12.3 1 14 C0.67 14 0.34 14 0 14 C0 9.38 0 4.76 0 0 Z " fill="#C4DFE6" transform="translate(132,233)"/>
<path d="M0 0 C3.96 0 7.92 0 12 0 C12 0.99 12 1.98 12 3 C11.34 3 10.68 3 10 3 C10.33 4.32 10.66 5.64 11 7 C10.01 7.495 10.01 7.495 9 8 C8.896875 7.360625 8.79375 6.72125 8.6875 6.0625 C8.460625 5.381875 8.23375 4.70125 8 4 C7.01 3.67 6.02 3.34 5 3 C3.65909241 2.34870203 2.32407669 1.68486725 1 1 C1 2.65 1 4.3 1 6 C0.67 6 0.34 6 0 6 C0 4.02 0 2.04 0 0 Z " fill="#B0D7DC" transform="translate(308,230)"/>
<path d="M0 0 C0.66 0.99 1.32 1.98 2 3 C3.96361864 3.57748803 3.96361864 3.57748803 6.125 3.6875 C7.40375 3.790625 8.6825 3.89375 10 4 C10 4.33 10 4.66 10 5 C8.88625 5.0825 7.7725 5.165 6.625 5.25 C2.94246056 5.57873787 2.94246056 5.57873787 1.5625 8.0625 C1.2840625 9.0215625 1.2840625 9.0215625 1 10 C-0.32 10 -1.64 10 -3 10 C-2.39009109 6.44219804 -1.4216319 3.3171411 0 0 Z " fill="#9BC6CE" transform="translate(172,240)"/>
<path d="M0 0 C0.99 0 1.98 0 3 0 C3 0.99 3 1.98 3 3 C3.66 3 4.32 3 5 3 C5.33 4.98 5.66 6.96 6 9 C4.0625 8.6875 4.0625 8.6875 2 8 C1.67 7.01 1.34 6.02 1 5 C0.01 5.33 -0.98 5.66 -2 6 C-1.34 4.02 -0.68 2.04 0 0 Z " fill="#FAFDF9" transform="translate(291,232)"/>
<path d="M0 0 C0.99 0 1.98 0 3 0 C3 2.64 3 5.28 3 8 C3.66 8.33 4.32 8.66 5 9 C3.35 10.32 1.7 11.64 0 13 C0 8.71 0 4.42 0 0 Z " fill="#E3F2F4" transform="translate(217,231)"/>
<path d="M0 0 C3.96 0 7.92 0 12 0 C10.02 0.99 10.02 0.99 8 2 C8.66 2.66 9.32 3.32 10 4 C10.125 6.625 10.125 6.625 10 9 C9.34 8.67 8.68 8.34 8 8 C8 7.01 8 6.02 8 5 C7.01 4.67 6.02 4.34 5 4 C4.67 4.99 4.34 5.98 4 7 C4.33 5.02 4.66 3.04 5 1 C3.68 1 2.36 1 1 1 C1 2.98 1 4.96 1 7 C0.67 7 0.34 7 0 7 C0 4.69 0 2.38 0 0 Z " fill="#98C8D4" transform="translate(149,230)"/>
<path d="M0 0 C0.33 1.32 0.66 2.64 1 4 C3.64 4 6.28 4 9 4 C9 4.33 9 4.66 9 5 C7.824375 5.12375 7.824375 5.12375 6.625 5.25 C3.85250896 5.72806339 3.85250896 5.72806339 2.6875 8.0625 C2.460625 8.701875 2.23375 9.34125 2 10 C0.68 10 -0.64 10 -2 10 C-1.46274105 6.62294375 -0.88935377 3.303314 0 0 Z " fill="#A7CDD3" transform="translate(286,240)"/>
<path d="M0 0 C2.87579981 4.31369972 4 7.80734761 4 13 C2.68 13.33 1.36 13.66 0 14 C0 9.38 0 4.76 0 0 Z " fill="#EBFEFE" transform="translate(354,234)"/>
<path d="M0 0 C2.32590854 3.63423209 2.16265833 6.77088331 2 11 C0.68 10.34 -0.64 9.68 -2 9 C-2.103125 9.639375 -2.20625 10.27875 -2.3125 10.9375 C-2.539375 11.618125 -2.76625 12.29875 -3 13 C-3.99 13.33 -4.98 13.66 -6 14 C-5.67 11.69 -5.34 9.38 -5 7 C-3.02 7 -1.04 7 1 7 C0.67 4.69 0.34 2.38 0 0 Z " fill="#D4E7EA" transform="translate(310,185)"/>
<path d="M0 0 C3.96 0 7.92 0 12 0 C11.67 0.66 11.34 1.32 11 2 C8.03 2 5.06 2 2 2 C2 3.65 2 5.3 2 7 C1.01 6.67 0.02 6.34 -1 6 C-0.67 4.02 -0.34 2.04 0 0 Z " fill="#9EC0C5" transform="translate(187,150)"/>
<path d="M0 0 C6.27 0 12.54 0 19 0 C19 0.66 19 1.32 19 2 C12.14011227 2.94870788 5.85988773 2.94870788 -1 2 C-0.67 1.34 -0.34 0.68 0 0 Z " fill="#99FFFF" transform="translate(199,150)"/>
<path d="M0 0 C0.33 0.99 0.66 1.98 1 3 C1.66 3.33 2.32 3.66 3 4 C2.67 5.98 2.34 7.96 2 10 C0.35 9.67 -1.3 9.34 -3 9 C-2.01 6.03 -1.02 3.06 0 0 Z " fill="#99B5C4" transform="translate(241,240)"/>
<path d="M0 0 C1.0828125 0.804375 1.0828125 0.804375 2.1875 1.625 C4.93706631 3.35911051 4.93706631 3.35911051 7.8125 2.1875 C8.534375 1.795625 9.25625 1.40375 10 1 C10 2.32 10 3.64 10 5 C6.04 5 2.08 5 -2 5 C-1.34 3.35 -0.68 1.7 0 0 Z " fill="#F2FDFE" transform="translate(243,239)"/>
<path d="M0 0 C2.875 0.25 2.875 0.25 6 1 C7.375 3.0625 7.375 3.0625 8 5 C6.35 5.33 4.7 5.66 3 6 C0 1.125 0 1.125 0 0 Z " fill="#B7D9E0" transform="translate(271,244)"/>
<path d="M0 0 C0.99 0.33 1.98 0.66 3 1 C2.34 1 1.68 1 1 1 C1 6.61 1 12.22 1 18 C2.32 17.67 3.64 17.34 5 17 C5 17.99 5 18.98 5 20 C3.35 19.67 1.7 19.34 0 19 C0 12.73 0 6.46 0 0 Z " fill="#6EA3C3" transform="translate(353,230)"/>
<path d="M0 0 C1.65 0 3.3 0 5 0 C6.0625 1.8125 6.0625 1.8125 7 4 C6.67 4.99 6.34 5.98 6 7 C6 6.34 6 5.68 6 5 C5.34 5 4.68 5 4 5 C4 4.01 4 3.02 4 2 C3.01 2 2.02 2 1 2 C0.71125 2.94875 0.4225 3.8975 0.125 4.875 C-1 8 -1 8 -3 10 C-2.39009109 6.44219804 -1.4216319 3.3171411 0 0 Z " fill="#99C5D9" transform="translate(290,230)"/>
<path d="M0 0 C0.33 0 0.66 0 1 0 C1.20190089 6.35987804 0.6277833 11.85221129 -1 18 C-1.33 18 -1.66 18 -2 18 C-2.3690205 5.33029613 -2.3690205 5.33029613 0 0 Z " fill="#ACCDD6" transform="translate(311,198)"/>
<path d="M0 0 C0.83789062 0.48082031 1.67578125 0.96164062 2.5390625 1.45703125 C6.34741638 3.15488654 9.22826558 3.49189932 13.375 3.6875 C15.24285156 3.78611328 15.24285156 3.78611328 17.1484375 3.88671875 C18.08945313 3.92410156 19.03046875 3.96148437 20 4 C20 4.33 20 4.66 20 5 C17.22858283 5.08089542 14.45952181 5.14044062 11.6875 5.1875 C10.90181641 5.21263672 10.11613281 5.23777344 9.30664062 5.26367188 C8.54931641 5.27333984 7.79199219 5.28300781 7.01171875 5.29296875 C6.31522217 5.3086792 5.61872559 5.32438965 4.90112305 5.34057617 C2.41762422 4.89567045 1.52898008 3.96642914 0 2 C0 1.34 0 0.68 0 0 Z " fill="#8EBECE" transform="translate(233,311)"/>
<path d="M0 0 C0.33 1.32 0.66 2.64 1 4 C2.65 4 4.3 4 6 4 C6.33 5.32 6.66 6.64 7 8 C4.50907189 9.24546405 3.58919267 8.7767578 1 8 C1 9.98 1 11.96 1 14 C0.67 14 0.34 14 0 14 C0 11.69 0 9.38 0 7 C0.99 7 1.98 7 3 7 C3 6.34 3 5.68 3 5 C2.01 5 1.02 5 0 5 C0 3.35 0 1.7 0 0 Z " fill="#92B6BE" transform="translate(198,233)"/>
<path d="M0 0 C0.33 0 0.66 0 1 0 C1.33 2.31 1.66 4.62 2 7 C2.66 7 3.32 7 4 7 C4.33 5.68 4.66 4.36 5 3 C5 5.64 5 8.28 5 11 C3.35 11 1.7 11 0 11 C0 7.37 0 3.74 0 0 Z " fill="#94C0D0" transform="translate(149,239)"/>
<path d="M0 0 C0.33 0 0.66 0 1 0 C1 2.97 1 5.94 1 9 C-0.32 9 -1.64 9 -3 9 C-2.67 7.68 -2.34 6.36 -2 5 C-1.67 5.33 -1.34 5.66 -1 6 C-0.67 4.02 -0.34 2.04 0 0 Z M-5 9 C-3.02 9.99 -3.02 9.99 -1 11 C-1.33 11.99 -1.66 12.98 -2 14 C-2.99 12.35 -3.98 10.7 -5 9 Z " fill="#899BB0" transform="translate(364,231)"/>
<path d="M0 0 C0.33 1.65 0.66 3.3 1 5 C-1.375 4.75 -1.375 4.75 -4 4 C-5.3125 1.9375 -5.3125 1.9375 -6 0 C-3 -1 -3 -1 0 0 Z " fill="#9CC4D1" transform="translate(163,245)"/>
<path d="M0 0 C1.65 0 3.3 0 5 0 C6.35439668 2.70879335 6.06501451 5.00933268 6 8 C5.01 7.67 4.02 7.34 3 7 C1.875 4.5625 1.875 4.5625 1 2 C0.67 1.34 0.34 0.68 0 0 Z " fill="#F1FAFC" transform="translate(156,231)"/>
<path d="M0 0 C0.33 1.32 0.66 2.64 1 4 C1.66 4 2.32 4 3 4 C2.67 5.65 2.34 7.3 2 9 C2.66 9 3.32 9 4 9 C4.33 8.34 4.66 7.68 5 7 C5 7.99 5 8.98 5 10 C3.68 10 2.36 10 1 10 C0.67 8.68 0.34 7.36 0 6 C-0.66 6.66 -1.32 7.32 -2 8 C-1.125 2.25 -1.125 2.25 0 0 Z " fill="#89B5BD" transform="translate(175,232)"/>
<path d="M0 0 C2.35448165 2.55068845 2.98327924 3.71017358 3.1875 7.25 C3.125625 8.1575 3.06375 9.065 3 10 C1.35 9.67 -0.3 9.34 -2 9 C-2 8.34 -2 7.68 -2 7 C-1.01 7 -0.02 7 1 7 C0.67 4.69 0.34 2.38 0 0 Z " fill="#87B2CF" transform="translate(184,240)"/>
<path d="M0 0 C0.66 0.33 1.32 0.66 2 1 C2.625 3.0625 2.625 3.0625 3 5 C2.34 5 1.68 5 1 5 C1 5.66 1 6.32 1 7 C-1.64 6.34 -4.28 5.68 -7 5 C-6.67 4.34 -6.34 3.68 -6 3 C-4.35 3 -2.7 3 -1 3 C-0.67 2.01 -0.34 1.02 0 0 Z " fill="#BAD5D8" transform="translate(297,237)"/>
<path d="M0 0 C1.98 0.495 1.98 0.495 4 1 C3.01 1 2.02 1 1 1 C1.14308594 2.57201172 1.14308594 2.57201172 1.2890625 4.17578125 C1.40162242 5.55464022 1.51356964 6.93354929 1.625 8.3125 C1.68945312 9.00279297 1.75390625 9.69308594 1.8203125 10.40429688 C2.11802847 14.2559972 2.20763723 15.68854416 0 19 C-1.35862973 15.09519751 -0.89469712 11.2898224 -0.5625 7.25 C-0.48418945 6.20392578 -0.48418945 6.20392578 -0.40429688 5.13671875 C-0.27525928 3.42403797 -0.13840386 1.71194934 0 0 Z " fill="#B5E2E9" transform="translate(216,230)"/>
<path d="M0 0 C0.99 0.33 1.98 0.66 3 1 C2.67 1.33 2.34 1.66 2 2 C2.99 2.66 3.98 3.32 5 4 C2.47524538 5.26237731 0.68799534 5.09856404 -2.125 5.0625 C-3.03507813 5.05347656 -3.94515625 5.04445312 -4.8828125 5.03515625 C-5.58148438 5.02355469 -6.28015625 5.01195312 -7 5 C-7 4.67 -7 4.34 -7 4 C-5.02 3.67 -3.04 3.34 -1 3 C-1.33 2.34 -1.66 1.68 -2 1 C-1.34 0.67 -0.68 0.34 0 0 Z " fill="#769FAE" transform="translate(202,245)"/>
<path d="M0 0 C1.65 0 3.3 0 5 0 C5 1.32 5 2.64 5 4 C4.01 4 3.02 4 2 4 C2 4.66 2 5.32 2 6 C1.34 6 0.68 6 0 6 C0 4.02 0 2.04 0 0 Z " fill="#D2E9ED" transform="translate(176,230)"/>
<path d="M0 0 C1.65 0.33 3.3 0.66 5 1 C5.33 2.65 5.66 4.3 6 6 C3.69 5.67 1.38 5.34 -1 5 C-0.67 3.35 -0.34 1.7 0 0 Z " fill="#94B3C7" transform="translate(335,240)"/>
<path d="M0 0 C0 1.32 0 2.64 0 4 C-1.98 4.33 -3.96 4.66 -6 5 C-6.33 3.68 -6.66 2.36 -7 1 C-4 0 -4 0 0 0 Z " fill="#BDEBF1" transform="translate(227,237)"/>
<path d="M0 0 C1.125 1.5625 1.125 1.5625 2 4 C1.1875 7.5625 1.1875 7.5625 0 11 C-0.33 11.99 -0.66 12.98 -1 14 C-1.33 14 -1.66 14 -2 14 C-2.21192221 8.80790596 -1.5912689 4.873261 0 0 Z " fill="#B0D5DA" transform="translate(321,232)"/>
<path d="M0 0 C0.33 0 0.66 0 1 0 C1 2.31 1 4.62 1 7 C-1.875 7.125 -1.875 7.125 -5 7 C-5.66 6.34 -6.32 5.68 -7 5 C-5.02 5 -3.04 5 -1 5 C-0.67 3.35 -0.34 1.7 0 0 Z " fill="#A9CBDF" transform="translate(253,316)"/>
<path d="M0 0 C0.66 0 1.32 0 2 0 C2.66 0.66 3.32 1.32 4 2 C4.66 1.34 5.32 0.68 6 0 C6.66 1.65 7.32 3.3 8 5 C5.6875 5.3125 5.6875 5.3125 3 5 C1.1875 2.5 1.1875 2.5 0 0 Z " fill="#9BCAD0" transform="translate(295,245)"/>
<path d="M0 0 C1.134375 0.020625 2.26875 0.04125 3.4375 0.0625 C0.4375 1.5625 0.4375 1.5625 -2.5625 3.0625 C-2.8925 4.0525 -3.2225 5.0425 -3.5625 6.0625 C-4.2225 6.0625 -4.8825 6.0625 -5.5625 6.0625 C-4.48849278 0.07874549 -4.48849278 0.07874549 0 0 Z " fill="#7393A6" transform="translate(191.5625,314.9375)"/>
<path d="M0 0 C1.65 0 3.3 0 5 0 C3.88820837 3.33537489 2.52588702 4.63707344 0 7 C0 4.69 0 2.38 0 0 Z " fill="#9ED5DD" transform="translate(227,230)"/>
<path d="M0 0 C0.66 0.33 1.32 0.66 2 1 C1.67 3.31 1.34 5.62 1 8 C1.66 8.33 2.32 8.66 3 9 C1.68 8.67 0.36 8.34 -1 8 C-0.67 5.36 -0.34 2.72 0 0 Z " fill="#98BFD2" transform="translate(227,241)"/>
<path d="M0 0 C0.36923077 5.53846154 0.36923077 5.53846154 -1.5 7.875 C-2.2425 8.431875 -2.2425 8.431875 -3 9 C-4.10102197 5.69693408 -3.95067299 4.28414305 -3 1 C-1 0 -1 0 0 0 Z " fill="#F1FBFB" transform="translate(321,232)"/>
<path d="M0 0 C-0.33 1.98 -0.66 3.96 -1 6 C-1.99 5.67 -2.98 5.34 -4 5 C-4.33 4.01 -4.66 3.02 -5 2 C-2 0 -2 0 0 0 Z " fill="#EDFCFD" transform="translate(161,240)"/>
<path d="M0 0 C0.33 0 0.66 0 1 0 C1.33 2.31 1.66 4.62 2 7 C0.68 6.67 -0.64 6.34 -2 6 C-1.125 1.125 -1.125 1.125 0 0 Z " fill="#F5FDFE" transform="translate(175,237)"/>
<path d="M0 0 C1 3 1 3 0.375 5.625 C-1 8 -1 8 -3.625 8.8125 C-4.800625 8.9053125 -4.800625 8.9053125 -6 9 C-5.38125 8.443125 -4.7625 7.88625 -4.125 7.3125 C-1.93893621 4.93354822 -1.01214301 3.03642904 0 0 Z " fill="#8AB2CB" transform="translate(205,306)"/>
<path d="M0 0 C0.66 0.33 1.32 0.66 2 1 C2 2.65 2 4.3 2 6 C0.68 6 -0.64 6 -2 6 C-1.34 4.02 -0.68 2.04 0 0 Z " fill="#F8FDFD" transform="translate(310,242)"/>
<path d="M0 0 C2.95183101 2.95183101 3.08663988 5.95511947 4 10 C3.01 9.67 2.02 9.34 1 9 C0.67 6.03 0.34 3.06 0 0 Z " fill="#B8D3EC" transform="translate(341,234)"/>
<path d="M0 0 C0.66 0.66 1.32 1.32 2 2 C1.625 4.125 1.625 4.125 1 6 C0.01 5.67 -0.98 5.34 -2 5 C-1.125 1.125 -1.125 1.125 0 0 Z " fill="#EEF4FC" transform="translate(295,235)"/>
<path d="M0 0 C1.98 0.99 1.98 0.99 4 2 C4 4.64 4 7.28 4 10 C0 4 0 4 0 0 Z " fill="#97CFD4" transform="translate(280,171)"/>
</svg>
